<svg width="16" height="16" viewBox="0 0 16 16" fill="none" xmlns="http://www.w3.org/2000/svg">
<g clip-path="url(#clip0_121_4)">
<path d="M12.338 2.512C13.5033 2.512 14.3773 2.80967 14.96 3.405C15.5553 4.00033 15.853 4.963 15.853 6.293V13H13.459V6.749C13.459 5.21633 12.8763 4.45 11.711 4.45C10.875 4.45 10.2797 4.72233 9.925 5.267C9.57033 5.81167 9.393 6.60333 9.393 7.642V13H6.999V6.749C6.999 5.21633 6.41 4.45 5.232 4.45C4.358 4.45 3.75633 4.754 3.427 5.362C3.09767 5.97 2.933 6.83767 2.933 7.965V13H0.539V2.702H2.382L2.724 4.051H2.857C3.161 3.519 3.58533 3.13267 4.13 2.892C4.68733 2.63867 5.26367 2.512 5.859 2.512C6.63167 2.512 7.27767 2.645 7.797 2.911C8.329 3.16433 8.73433 3.56333 9.013 4.108H9.203C9.51967 3.55067 9.963 3.14533 10.533 2.892C11.103 2.63867 11.7047 2.512 12.338 2.512Z" fill="url(#paint0_linear_121_4)"/>
</g>
<defs>
<linearGradient id="paint0_linear_121_4" x1="26.5" y1="9" x2="-1" y2="9" gradientUnits="userSpaceOnUse">
<stop stop-color="#F6CC63"/>
<stop offset="0.520833" stop-color="#EEC660"/>
<stop offset="0.520933" stop-color="#0F0D06"/>
<stop offset="1"/>
</linearGradient>
<clipPath id="clip0_121_4">
<rect width="16" height="16" fill="white"/>
</clipPath>
</defs>
</svg>
